# xmcd CD database file
#
# Track frame offsets:
#	150
#	3457
#	19486
#	36248
#	56998
#	78550
#	101029
#	122751
#	132288
#	163068
#	187797
#	206296
#	222221
#	239298
#	259185
#	275580
#
# Disc length: 3899 seconds
#
# Revision: 0
# Processed by: cddbd v1.5.1PL0 Copyright (c) Steve Scherf et al.
# Submitted via: CDex 1.50
#
DISCID=e70f3910
DTITLE=特撮 - ヌイグルマー
DYEAR=2000
DGENRE=Rock
TTITLE0=ヌイグルマー -序章-
TTITLE1=戦え！ヌイグルマー
TTITLE2=ジェロニモ
TTITLE3=爆弾ピエロ
TTITLE4=バーバレラ
TTITLE5=企画物AVの女
TTITLE6=ケテルビー (Album Version)
TTITLE7=愛の木星
TTITLE8=トンネルラブ
TTITLE9=アザナエル
TTITLE10=ゼルダ・フィッツジェラルド
TTITLE11=マタンゴ
TTITLE12=ヨギナクサレ
TTITLE13=殺神
TTITLE14=ヤンガリー
TTITLE15=ヨギナクサレ (Instrumental)
EXTD=YEAR: 2000
EXTT0=
EXTT1=
EXTT2=
EXTT3=
EXTT4=
EXTT5=
EXTT6=
EXTT7=
EXTT8=
EXTT9=
EXTT10=
EXTT11=
EXTT12=
EXTT13=
EXTT14=
EXTT15=
PLAYORDER=
